<?xml version="1.0" encoding="utf-8"?>
<svg viewBox="0 0 500 500" xmlns="http://www.w3.org/2000/svg">
  <rect style="stroke-width: 7px; fill: rgb(115, 171, 116);" x="11.798" y="12.644" width="476.821" height="476.821" rx="231" ry="231"/>
  <path d="M 173.163 387.815 C 167.895 387.585 162.384 385.023 158.554 381.075 C 155.197 377.264 152.285 372.149 150.349 366.592 C 148.524 361.218 147.228 355.638 146.571 350.37 C 145.397 340.687 144.882 331.079 145.036 321.886 C 145.194 312.942 145.105 302.977 144.767 292.016 L 141.686 113.798 L 142.703 113.798 L 176.198 113.798 C 184.465 114.013 191.764 117.395 195.944 122.7 C 199.431 127.793 201.866 134.563 202.818 141.854 C 203.56 147.977 203.994 153.736 204.112 158.878 C 204.218 163.926 204.252 169.937 204.212 176.851 C 204.171 183.702 204.239 192.979 204.416 204.726 L 204.761 226.466 L 296.151 226.466 L 294.2 113.798 L 295.218 113.798 L 328.714 113.798 C 336.981 114.013 344.281 117.395 348.458 122.698 C 351.948 127.793 354.382 134.564 355.334 141.854 C 356.076 147.977 356.51 153.734 356.628 158.878 C 356.735 163.926 356.768 169.937 356.727 176.851 C 356.687 183.702 356.754 192.979 356.932 204.721 L 359.85 387.816 L 358.834 387.816 L 325.679 387.815 C 320.41 387.585 314.901 385.023 311.07 381.075 C 307.713 377.264 304.8 372.149 302.865 366.591 C 301.041 361.218 299.744 355.638 299.086 350.369 C 297.913 340.687 297.398 331.079 297.551 321.886 C 297.709 312.942 297.62 302.979 297.284 292.016 L 296.875 268.388 L 205.43 268.388 L 207.333 387.816 L 206.317 387.816 Z" style="fill: rgb(255, 255, 255);"/>
</svg>