<?xml version="1.0" encoding="utf-8"?>
<svg viewBox="0 0 500 500" xmlns="http://www.w3.org/2000/svg">
  <rect style="stroke-width: 7px; fill: rgb(47, 119, 48);" x="11.798" y="12.644" width="476.821" height="476.821" rx="231" ry="231"/>
  <path d="M 176.823 386.692 C 171.555 386.462 166.044 383.9 162.214 379.952 C 158.857 376.141 155.945 371.026 154.009 365.469 C 152.184 360.095 150.888 354.515 150.231 349.247 C 149.057 339.564 148.542 329.956 148.696 320.763 C 148.854 311.819 148.765 301.854 148.427 290.893 L 145.346 112.675 L 146.363 112.675 L 179.858 112.675 C 188.125 112.89 195.424 116.272 199.604 121.577 C 203.091 126.67 205.526 133.44 206.478 140.731 C 207.22 146.854 207.654 152.613 207.772 157.755 C 207.878 162.803 207.912 168.814 207.872 175.728 C 207.831 182.579 207.899 191.856 208.076 203.603 L 208.421 225.343 L 299.811 225.343 L 297.86 112.675 L 298.878 112.675 L 332.374 112.675 C 340.641 112.89 347.941 116.272 352.12 121.577 C 355.607 126.671 358.042 133.44 358.994 140.731 C 359.736 146.854 360.17 152.611 360.288 157.755 C 360.395 162.803 360.428 168.814 360.387 175.728 C 360.347 182.579 360.414 191.856 360.592 203.598 L 363.51 386.693 L 362.494 386.693 L 329.339 386.692 C 324.07 386.462 318.561 383.9 314.73 379.952 C 311.373 376.141 308.46 371.026 306.525 365.468 C 304.701 360.095 303.404 354.515 302.746 349.246 C 301.573 339.564 301.058 329.956 301.211 320.763 C 301.369 311.819 301.28 301.856 300.944 290.893 L 300.535 267.265 L 209.09 267.265 L 210.993 386.693 L 209.977 386.693 Z" style="fill: rgb(255, 255, 255);"/>
</svg>