<?xml version="1.0" encoding="utf-8"?>
<svg viewBox="0 0 500 500" xmlns="http://www.w3.org/2000/svg">
  <defs>
    <linearGradient gradientUnits="userSpaceOnUse" x1="700.633" y1="143.46" x2="700.633" y2="444.726" id="gradient-2" gradientTransform="matrix(1.1709, 1.064902, -1.105508, 1.215548, -242.927211, -849.127984)">
      <stop offset="0" style="stop-color: rgb(13, 62, 14);"/>
      <stop offset="1" style="stop-color: rgb(162, 231, 163);"/>
    </linearGradient>
  </defs>
  <rect style="fill: url('#gradient-2'); stroke-width: 7px;" x="11.798" y="12.644" width="476.821" height="476.821" rx="231" ry="231"/>
  <path d="M 173.352 384.732 C 168.084 384.502 162.573 381.94 158.743 377.992 C 155.386 374.181 152.474 369.066 150.538 363.509 C 148.713 358.135 147.417 352.555 146.76 347.287 C 145.586 337.604 145.071 327.996 145.225 318.803 C 145.383 309.859 145.294 299.894 144.956 288.933 L 141.875 110.715 L 142.892 110.715 L 176.387 110.715 C 184.654 110.93 191.953 114.312 196.133 119.617 C 199.62 124.71 202.055 131.48 203.007 138.771 C 203.749 144.894 204.183 150.653 204.301 155.795 C 204.407 160.843 204.441 166.854 204.401 173.768 C 204.36 180.619 204.428 189.896 204.605 201.643 L 204.95 223.383 L 296.34 223.383 L 294.389 110.715 L 295.407 110.715 L 328.903 110.715 C 337.17 110.93 344.47 114.312 348.649 119.617 C 352.136 124.71 354.571 131.48 355.523 138.771 C 356.265 144.894 356.699 150.651 356.817 155.795 C 356.924 160.843 356.957 166.854 356.916 173.768 C 356.876 180.619 356.943 189.896 357.121 201.638 L 360.039 384.733 L 359.023 384.733 L 325.868 384.732 C 320.599 384.502 315.09 381.94 311.259 377.992 C 307.902 374.181 304.989 369.066 303.054 363.508 C 301.23 358.135 299.933 352.555 299.275 347.286 C 298.102 337.604 297.587 327.996 297.74 318.803 C 297.898 309.859 297.809 299.896 297.473 288.933 L 297.064 265.305 L 205.619 265.305 L 207.522 384.733 L 206.506 384.733 Z" style="fill: rgb(255, 255, 255);"/>
</svg>